<mxfile host="drawio-plugin" modified="2024-02-04T09:42:15.727Z" agent="5.0 (X11; Linux x86_64) AppleWebKit/537.36 (KHTML, like Gecko) Chrome/111.0.0.0 Safari/537.36" etag="HzoWUYW4fcBw-TcE4Liy" version="20.5.3" type="embed"><diagram id="Iq2xAphZTL3JiQJVDdVK" name="Page-1"><mxGraphModel dx="1084" dy="614" grid="1" gridSize="10" guides="1" tooltips="1" connect="1" arrows="1" fold="1" page="1" pageScale="1" pageWidth="827" pageHeight="1169" math="0" shadow="0"><root><mxCell id="0"/><mxCell id="1" parent="0"/><mxCell id="3" value="MongoDb" style="shape=cylinder3;whiteSpace=wrap;html=1;boundedLbl=1;backgroundOutline=1;size=15;fillColor=#60a917;fontColor=#ffffff;strokeColor=#2D7600;" parent="1" vertex="1"><mxGeometry x="384" y="380" width="60" height="80" as="geometry"/></mxCell><mxCell id="4" value="Agent &lt;br&gt;&quot;New Job&quot;" style="shape=process;whiteSpace=wrap;html=1;backgroundOutline=1;fillColor=#6a00ff;strokeColor=#3700CC;fontColor=#ffffff;" parent="1" vertex="1"><mxGeometry x="170" y="120" width="120" height="60" as="geometry"/></mxCell><mxCell id="5" value="Web server" style="shape=process;whiteSpace=wrap;html=1;backgroundOutline=1;fillColor=#6a00ff;fontColor=#ffffff;strokeColor=#3700CC;" parent="1" vertex="1"><mxGeometry x="170" y="310" width="120" height="60" as="geometry"/></mxCell><mxCell id="6" value="Agent &lt;br&gt;&quot;History Sent&quot;" style="shape=process;whiteSpace=wrap;html=1;backgroundOutline=1;fillColor=#6a00ff;strokeColor=#3700CC;fontColor=#ffffff;" parent="1" vertex="1"><mxGeometry x="354" y="200" width="120" height="60" as="geometry"/></mxCell><mxCell id="7" value="Agent &lt;br&gt;&quot;Job Done&quot;" style="shape=process;whiteSpace=wrap;html=1;backgroundOutline=1;fillColor=#6a00ff;strokeColor=#3700CC;fontColor=#ffffff;" parent="1" vertex="1"><mxGeometry x="520" y="200" width="120" height="60" as="geometry"/></mxCell><mxCell id="8" value="Agent &lt;br&gt;&quot;Execute&amp;nbsp;Job&quot;" style="shape=process;whiteSpace=wrap;html=1;backgroundOutline=1;fillColor=#6a00ff;strokeColor=#3700CC;fontColor=#ffffff;" parent="1" vertex="1"><mxGeometry x="690" y="120" width="120" height="60" as="geometry"/></mxCell><mxCell id="11" value="AMQP Server" style="shape=hexagon;perimeter=hexagonPerimeter2;whiteSpace=wrap;html=1;fixedSize=1;fillColor=#e51400;fontColor=#ffffff;strokeColor=#B20000;" parent="1" vertex="1"><mxGeometry x="366" y="40" width="96" height="50" as="geometry"/></mxCell><mxCell id="12" value="Buildah" style="shape=hexagon;perimeter=hexagonPerimeter2;whiteSpace=wrap;html=1;fixedSize=1;fillColor=#1ba1e2;fontColor=#ffffff;strokeColor=#006EAF;" parent="1" vertex="1"><mxGeometry x="690" y="300" width="96" height="50" as="geometry"/></mxCell><mxCell id="13" value="Kubernetes" style="shape=hexagon;perimeter=hexagonPerimeter2;whiteSpace=wrap;html=1;fixedSize=1;fillColor=#0050ef;fontColor=#ffffff;strokeColor=#001DBC;" parent="1" vertex="1"><mxGeometry x="690" y="220" width="96" height="50" as="geometry"/></mxCell><mxCell id="14" value="Mercure" style="shape=hexagon;perimeter=hexagonPerimeter2;whiteSpace=wrap;html=1;fixedSize=1;fillColor=#fa6800;fontColor=#000000;strokeColor=#C73500;" parent="1" vertex="1"><mxGeometry x="73" y="220" width="96" height="50" as="geometry"/></mxCell><mxCell id="16" value="" style="endArrow=classic;startArrow=none;html=1;rounded=1;entryX=0.5;entryY=0;entryDx=0;entryDy=0;entryPerimeter=0;startFill=0;" parent="1" target="3" edge="1"><mxGeometry width="50" height="50" relative="1" as="geometry"><mxPoint x="230" y="180" as="sourcePoint"/><mxPoint x="450" y="250" as="targetPoint"/><Array as="points"><mxPoint x="230" y="240"/><mxPoint x="320" y="240"/><mxPoint x="320" y="340"/><mxPoint x="414" y="340"/></Array></mxGeometry></mxCell><mxCell id="17" value="" style="endArrow=classic;startArrow=none;html=1;rounded=0;entryX=0.5;entryY=0;entryDx=0;entryDy=0;entryPerimeter=0;exitX=0.5;exitY=1;exitDx=0;exitDy=0;startFill=0;" parent="1" source="6" target="3" edge="1"><mxGeometry width="50" height="50" relative="1" as="geometry"><mxPoint x="400" y="300" as="sourcePoint"/><mxPoint x="370" y="380" as="targetPoint"/></mxGeometry></mxCell><mxCell id="18" value="" style="endArrow=none;startArrow=classic;html=1;rounded=1;entryX=0.542;entryY=1.047;entryDx=0;entryDy=0;entryPerimeter=0;exitX=0.5;exitY=0;exitDx=0;exitDy=0;exitPerimeter=0;startFill=1;endFill=0;" parent="1" source="3" target="7" edge="1"><mxGeometry width="50" height="50" relative="1" as="geometry"><mxPoint x="390" y="410" as="sourcePoint"/><mxPoint x="440" y="360" as="targetPoint"/><Array as="points"><mxPoint x="414" y="340"/><mxPoint x="585" y="340"/></Array></mxGeometry></mxCell><mxCell id="19" value="" style="endArrow=none;startArrow=classic;html=1;rounded=0;entryX=0.419;entryY=1.006;entryDx=0;entryDy=0;entryPerimeter=0;endFill=0;" parent="1" source="13" target="8" edge="1"><mxGeometry width="50" height="50" relative="1" as="geometry"><mxPoint x="390" y="250" as="sourcePoint"/><mxPoint x="440" y="200" as="targetPoint"/><Array as="points"><mxPoint x="740" y="220"/></Array></mxGeometry></mxCell><mxCell id="20" value="" style="endArrow=none;startArrow=classic;html=1;rounded=1;entryX=1;entryY=1;entryDx=0;entryDy=0;exitX=1;exitY=0.5;exitDx=0;exitDy=0;endFill=0;" parent="1" source="12" target="8" edge="1"><mxGeometry width="50" height="50" relative="1" as="geometry"><mxPoint x="390" y="250" as="sourcePoint"/><mxPoint x="440" y="200" as="targetPoint"/><Array as="points"><mxPoint x="810" y="325"/></Array></mxGeometry></mxCell><mxCell id="21" value="" style="endArrow=none;startArrow=classic;html=1;rounded=1;entryX=0;entryY=0.5;entryDx=0;entryDy=0;exitX=0.5;exitY=0;exitDx=0;exitDy=0;endFill=0;" parent="1" source="14" target="4" edge="1"><mxGeometry width="50" height="50" relative="1" as="geometry"><mxPoint x="390" y="410" as="sourcePoint"/><mxPoint x="440" y="360" as="targetPoint"/><Array as="points"><mxPoint x="120" y="150"/></Array></mxGeometry></mxCell><mxCell id="22" value="" style="endArrow=classic;startArrow=classic;html=1;rounded=1;entryX=0.5;entryY=1;entryDx=0;entryDy=0;exitX=0;exitY=0.5;exitDx=0;exitDy=0;" parent="1" source="5" target="14" edge="1"><mxGeometry width="50" height="50" relative="1" as="geometry"><mxPoint x="390" y="410" as="sourcePoint"/><mxPoint x="440" y="360" as="targetPoint"/><Array as="points"><mxPoint x="120" y="340"/></Array></mxGeometry></mxCell><mxCell id="23" value="" style="endArrow=none;startArrow=classic;html=1;rounded=1;entryX=0;entryY=0.5;entryDx=0;entryDy=0;exitX=0.5;exitY=0;exitDx=0;exitDy=0;endFill=0;" parent="1" source="4" target="11" edge="1"><mxGeometry width="50" height="50" relative="1" as="geometry"><mxPoint x="390" y="290" as="sourcePoint"/><mxPoint x="440" y="240" as="targetPoint"/><Array as="points"><mxPoint x="230" y="65"/></Array></mxGeometry></mxCell><mxCell id="24" value="" style="endArrow=none;startArrow=classic;html=1;rounded=0;entryX=0.5;entryY=1;entryDx=0;entryDy=0;endFill=0;" parent="1" source="6" target="11" edge="1"><mxGeometry width="50" height="50" relative="1" as="geometry"><mxPoint x="390" y="290" as="sourcePoint"/><mxPoint x="440" y="240" as="targetPoint"/></mxGeometry></mxCell><mxCell id="26" value="" style="endArrow=none;startArrow=classic;html=1;rounded=1;entryX=0.776;entryY=0.997;entryDx=0;entryDy=0;entryPerimeter=0;exitX=0.5;exitY=0;exitDx=0;exitDy=0;endFill=0;" parent="1" source="7" target="11" edge="1"><mxGeometry width="50" height="50" relative="1" as="geometry"><mxPoint x="390" y="290" as="sourcePoint"/><mxPoint x="440" y="240" as="targetPoint"/><Array as="points"><mxPoint x="580" y="160"/><mxPoint x="440" y="160"/></Array></mxGeometry></mxCell><mxCell id="27" value="" style="endArrow=classic;startArrow=classic;html=1;rounded=1;entryX=1;entryY=0.5;entryDx=0;entryDy=0;exitX=0.5;exitY=0;exitDx=0;exitDy=0;" parent="1" source="8" target="11" edge="1"><mxGeometry width="50" height="50" relative="1" as="geometry"><mxPoint x="390" y="290" as="sourcePoint"/><mxPoint x="440" y="240" as="targetPoint"/><Array as="points"><mxPoint x="750" y="65"/></Array></mxGeometry></mxCell><mxCell id="29" value="" style="endArrow=classic;startArrow=none;html=1;rounded=1;exitX=1;exitY=0.5;exitDx=0;exitDy=0;entryX=0.5;entryY=0;entryDx=0;entryDy=0;entryPerimeter=0;startFill=0;" parent="1" source="5" target="3" edge="1"><mxGeometry width="50" height="50" relative="1" as="geometry"><mxPoint x="290" y="340" as="sourcePoint"/><mxPoint x="410" y="380" as="targetPoint"/><Array as="points"><mxPoint x="414" y="340"/></Array></mxGeometry></mxCell><mxCell id="30" value="" style="endArrow=classic;startArrow=none;html=1;rounded=1;entryX=0.5;entryY=0;entryDx=0;entryDy=0;exitX=0.5;exitY=1;exitDx=0;exitDy=0;startFill=0;" parent="1" source="5" target="11" edge="1"><mxGeometry width="50" height="50" relative="1" as="geometry"><mxPoint x="590" y="210" as="sourcePoint"/><mxPoint x="450.49599999999987" y="99.84999999999997" as="targetPoint"/><Array as="points"><mxPoint x="230" y="400"/><mxPoint x="40" y="400"/><mxPoint x="40" y="20"/><mxPoint x="414" y="20"/></Array></mxGeometry></mxCell></root></mxGraphModel></diagram></mxfile>